<?xml version="1.0" encoding="utf-8"?>
<!-- Generator: Adobe Illustrator 25.0.1, SVG Export Plug-In . SVG Version: 6.00 Build 0)  -->
<svg version="1.1" id="Layer_1" xmlns="http://www.w3.org/2000/svg" xmlns:xlink="http://www.w3.org/1999/xlink" x="0px" y="0px"
	 viewBox="0 0 219.6 161.1" style="enable-background:new 0 0 219.6 161.1;" xml:space="preserve">
<style type="text/css">
	.st0{fill:url(#SVGID_1_);}
	.st1{fill:url(#SVGID_2_);}
	.st2{fill:url(#SVGID_3_);}
	.st3{fill:url(#SVGID_4_);}
	.st4{fill:url(#SVGID_5_);}
	.st5{fill:url(#SVGID_6_);}
	.st6{fill:url(#SVGID_7_);}
	.st7{fill:url(#SVGID_8_);}
	.st8{fill:url(#SVGID_9_);}
	.st9{fill:url(#SVGID_10_);}
</style>
<linearGradient id="SVGID_1_" gradientUnits="userSpaceOnUse" x1="4.67" y1="139.9852" x2="84.37" y2="139.9852" gradientTransform="matrix(1 0 0 -1 0 156.1603)">
	<stop  offset="0" style="stop-color:#FFFFFF"/>
	<stop  offset="1" style="stop-color:#DCDCDC"/>
</linearGradient>
<path class="st0" d="M0,0v32.3h102.7L76.1,2.7C74.6,1,72.4,0,70.1,0L0,0z"/>
<linearGradient id="SVGID_2_" gradientUnits="userSpaceOnUse" x1="134.72" y1="139.9851" x2="206.08" y2="139.9851" gradientTransform="matrix(1 0 0 -1 0 156.1603)">
	<stop  offset="0" style="stop-color:#DCDCDC"/>
	<stop  offset="1" style="stop-color:#FFFFFF"/>
</linearGradient>
<path class="st1" d="M122.3,0c-1.8,0-3.5,0.6-4.9,1.7L148,32.4h60.8V0H122.3z"/>
<linearGradient id="SVGID_3_" gradientUnits="userSpaceOnUse" x1="54.28" y1="59.4301" x2="54.28" y2="3.9201" gradientTransform="matrix(1 0 0 -1 0 156.1603)">
	<stop  offset="0" style="stop-color:#DCDCDC"/>
	<stop  offset="1" style="stop-color:#FFFFFF"/>
</linearGradient>
<polygon class="st2" points="49.5,92.3 25.5,156.2 60.6,156.2 83.1,92.3 "/>
<linearGradient id="SVGID_4_" gradientUnits="userSpaceOnUse" x1="83.46" y1="101.0801" x2="83.46" y2="120.1501" gradientTransform="matrix(1 0 0 -1 0 156.1603)">
	<stop  offset="0" style="stop-color:#FFFFFF"/>
	<stop  offset="1" style="stop-color:#DCDCDC"/>
</linearGradient>
<polygon class="st3" points="103.5,34.4 71.3,34.4 63.4,55.3 96.1,55.3 "/>
<linearGradient id="SVGID_5_" gradientUnits="userSpaceOnUse" x1="130.475" y1="100.9501" x2="130.475" y2="135.7901" gradientTransform="matrix(1 0 0 -1 0 156.1603)">
	<stop  offset="0" style="stop-color:#FFFFFF"/>
	<stop  offset="1" style="stop-color:#DCDCDC"/>
</linearGradient>
<path class="st4" d="M146.6,33.7L116,3.1c-1.1,1.4-1.7,3.1-1.6,4.9v47.2h32.4L146.6,33.7z"/>
<linearGradient id="SVGID_6_" gradientUnits="userSpaceOnUse" x1="203.8" y1="33.6301" x2="203.8" y2="63.8401" gradientTransform="matrix(1 0 0 -1 0 156.1603)">
	<stop  offset="0" style="stop-color:#FFFFFF"/>
	<stop  offset="1" style="stop-color:#DCDCDC"/>
</linearGradient>
<rect x="188" y="92.3" class="st5" width="31.6" height="30.2"/>
<linearGradient id="SVGID_7_" gradientUnits="userSpaceOnUse" x1="123.99" y1="15.8151" x2="199.21" y2="15.8151" gradientTransform="matrix(1 0 0 -1 0 156.1603)">
	<stop  offset="0" style="stop-color:#FFFFFF"/>
	<stop  offset="1" style="stop-color:#DCDCDC"/>
</linearGradient>
<path class="st6" d="M183.2,156.2c2.1,0,4.2-0.8,5.7-2.3l29.3-29.3h-92.4l-11.2,31.6H183.2z"/>
<linearGradient id="SVGID_8_" gradientUnits="userSpaceOnUse" x1="108.495" y1="98.4101" x2="108.495" y2="67.7901" gradientTransform="matrix(1 0 0 -1 0 156.1603)">
	<stop  offset="0" style="stop-color:#FFFFFF"/>
	<stop  offset="1" style="stop-color:#DCDCDC"/>
</linearGradient>
<polygon class="st7" points="108.5,66.2 105.1,75.5 111.9,75.5 108.5,66.2 "/>
<linearGradient id="SVGID_9_" gradientUnits="userSpaceOnUse" x1="130.35" y1="98.4101" x2="130.35" y2="67.7901" gradientTransform="matrix(1 0 0 -1 0 156.1603)">
	<stop  offset="0" style="stop-color:#FFFFFF"/>
	<stop  offset="1" style="stop-color:#DCDCDC"/>
</linearGradient>
<path class="st8" d="M135.4,69.4c0-2-1.1-3.4-3.6-3.4h-6.6v7h5.5C133.3,73,135.4,72.3,135.4,69.4z"/>
<linearGradient id="SVGID_10_" gradientUnits="userSpaceOnUse" x1="109.6" y1="98.4101" x2="109.6" y2="67.7901" gradientTransform="matrix(1 0 0 -1 0 156.1603)">
	<stop  offset="0" style="stop-color:#FFFFFF"/>
	<stop  offset="1" style="stop-color:#DCDCDC"/>
</linearGradient>
<path class="st9" d="M188.9,59.7c-1.5-1.6-3.6-2.5-5.8-2.5H0.9l30,30.7c1.5,1.5,3.6,2.4,5.7,2.4h181.6L188.9,59.7z M69.1,75.6v8.2
	h-2.7v-8.2l-7.7-11.8h3.1l6,9.5l5.9-9.5h3L69.1,75.6z M95.6,83.8H81.8v-20h13.8V66H84.4v6.4h10.4v2.2H84.4v6.9h11.2V83.8z
	 M114.9,83.8l-2.2-6h-8.5l-2.2,6h-2.8l7.8-20h2.9l7.8,20H114.9z M135.8,83.8c-0.8-0.8-0.3-3-0.7-4.9s-0.8-3.6-3.3-3.6h-6.5v8.5h-2.7
	v-20h9.4c3.8,0,6.1,2,6.1,5.2c0,2.4-1.1,4.4-3.5,5.1v0c2.3,0.5,2.8,2.2,3,4.1s0.1,4.1,1.2,5.5L135.8,83.8z M151.7,84.2
	c-4.5,0-8.3-2.2-8.3-7.1h2.5c0,3.4,2.8,4.8,5.8,4.8c2.4,0,5.1-0.8,5.1-3.6s-3.2-3.2-6.4-3.9s-6.4-1.6-6.4-5.3c0-4.1,3.6-5.9,7.3-5.9
	c4.1,0,7.2,1.9,7.4,6.3h-2.5c-0.3-2.9-2.2-4.1-5-4.1c-2.2,0-4.5,0.8-4.5,3.4s3.2,2.8,6.4,3.6s6.4,1.8,6.4,5.8
	C159.5,82.5,155.3,84.2,151.7,84.2L151.7,84.2z"/>
</svg>
